<?xml version="1.0"?><svg version="1.2" baseProfile="tiny-ps" viewBox="0 0 300 300" xmlns="http://www.w3.org/2000/svg" xmlns:xlink="http://www.w3.org/1999/xlink"><title>play</title><g><g fill="#fff" transform="matrix(.1 0 0 -.1 0 300)"><path d="M755 2629c168-177 811-847 846-881l38-38h46l113 116 113 115-3 36-3 37-545 308c-300 170-574 325-610 345l-65 36 70-74zm-369-5c-3-9-6-519-6-1134V371l9-6 10-5 13 19c7 10 117 126 244 257 127 132 360 374 518 538l287 299-3 33-3 32-529 551c-291 303-530 551-532 551-1 0-5-7-8-16zm1625-939-151-156v-49l147-155 146-155 16-1c33-3 50 5 201 89 164 92 212 127 236 173l14 28v92l-11 22c-6 12-23 35-38 50l-26 29-166 94-166 94h-51l-151-155zm-491-512c-63-65-166-172-230-238s-223-231-354-367C805 431 701 320 706 320c13 1 1161 653 1185 673l19 17v27l-1 28-108 113-108 112h-59l-114-117z"/></g></g></svg>